<svg width="26" height="26" viewBox="0 0 26 26" fill="none" xmlns="http://www.w3.org/2000/svg">
<path d="M17.5244 17.7241C17.8399 16.619 18.0487 15.3351 18.1282 14.1024C18.13 14.0702 18.1251 14.038 18.1139 14.0077C18.1027 13.9775 18.0854 13.9499 18.0631 13.9266C18.0407 13.9033 18.0139 13.8849 17.9841 13.8724C17.9544 13.86 17.9224 13.8538 17.8901 13.8542H14.0965C14.0655 13.8539 14.0347 13.8597 14.0059 13.8714C13.9771 13.883 13.9508 13.9002 13.9287 13.9219C13.9065 13.9437 13.8889 13.9696 13.8767 13.9982C13.8646 14.0268 13.8582 14.0575 13.8579 14.0885V17.0408C13.8586 17.1004 13.8817 17.1576 13.9227 17.2009C13.9636 17.2443 14.0194 17.2706 14.0789 17.2746C15.148 17.361 16.2043 17.5649 17.2287 17.8826C17.2889 17.9008 17.3539 17.8942 17.4093 17.8645C17.4648 17.8348 17.5062 17.7843 17.5244 17.7241Z" fill="#2361A9"/>
<path d="M16.6078 19.4762C15.7951 19.2389 14.9623 19.0765 14.12 18.9909C14.0875 18.9873 14.0546 18.9905 14.0233 19.0002C13.9921 19.01 13.9632 19.0262 13.9386 19.0477C13.9139 19.0693 13.894 19.0957 13.8801 19.1254C13.8662 19.155 13.8587 19.1872 13.8579 19.22V22.7028C13.8592 22.7444 13.8713 22.7849 13.893 22.8203C13.9148 22.8557 13.9454 22.8849 13.9819 22.9048C14.0183 22.9248 14.0594 22.9349 14.1009 22.9341C14.1425 22.9333 14.1831 22.9217 14.2188 22.9004C15.0676 22.4055 15.767 21.5743 16.3991 20.4751C16.5026 20.2957 16.6601 19.9866 16.7551 19.7976C16.7699 19.7672 16.7777 19.7339 16.7781 19.7001C16.7785 19.6663 16.7714 19.6329 16.7573 19.6021C16.7432 19.5714 16.7225 19.5442 16.6967 19.5224C16.6708 19.5007 16.6405 19.4849 16.6078 19.4762Z" fill="#2361A9"/>
<path d="M11.8944 19.0005C11.0531 19.0806 10.221 19.2382 9.40875 19.4714C9.26781 19.512 9.20855 19.7063 9.27262 19.8339C9.36818 20.0239 9.48616 20.2668 9.58706 20.4484C10.2811 21.6762 11.0199 22.4503 11.7887 22.9004C11.8244 22.9217 11.865 22.9333 11.9066 22.9341C11.9481 22.9349 11.9892 22.9248 12.0256 22.9048C12.0621 22.8849 12.0927 22.8557 12.1144 22.8203C12.1362 22.7849 12.1483 22.7444 12.1496 22.7028V19.2184C12.1493 19.1865 12.1422 19.1552 12.1288 19.1263C12.1153 19.0975 12.0959 19.0719 12.0717 19.0512C12.0475 19.0306 12.0191 19.0154 11.9885 19.0066C11.9579 18.9979 11.9258 18.9958 11.8944 19.0005Z" fill="#2361A9"/>
<path d="M11.9109 13.8542H8.11735C8.08515 13.8538 8.05321 13.86 8.0235 13.8724C7.99379 13.8848 7.96694 13.9032 7.94463 13.9264C7.92231 13.9496 7.90499 13.9772 7.89375 14.0074C7.8825 14.0376 7.87757 14.0697 7.87925 14.1019C7.95826 15.333 8.16593 16.6195 8.48037 17.7236C8.48929 17.7538 8.50412 17.7819 8.52399 17.8064C8.54386 17.8308 8.56839 17.8511 8.59614 17.866C8.6239 17.8808 8.65434 17.8901 8.68569 17.8931C8.71705 17.8962 8.74869 17.893 8.7788 17.8837C9.80312 17.566 10.8595 17.3626 11.9285 17.2773C11.9881 17.2734 12.0441 17.2471 12.0851 17.2038C12.1262 17.1604 12.1494 17.1031 12.1501 17.0434V14.0891C12.1499 14.0579 12.1435 14.0271 12.1314 13.9984C12.1192 13.9698 12.1015 13.9437 12.0793 13.9219C12.0571 13.9001 12.0308 13.8829 12.0019 13.8712C11.973 13.8596 11.9421 13.8538 11.9109 13.8542Z" fill="#2361A9"/>
<path d="M14.1211 7.00907C14.9629 6.93019 15.7945 6.76672 16.6035 6.52112C16.636 6.51234 16.6661 6.49654 16.6918 6.47482C16.7175 6.45311 16.7381 6.42601 16.7522 6.39545C16.7662 6.36489 16.7734 6.33162 16.7732 6.29799C16.773 6.26435 16.7653 6.23118 16.7509 6.20081C16.6553 6.01022 16.5229 5.73742 16.4215 5.55538C15.7654 4.38089 15.026 3.56142 14.2199 3.09964C14.1841 3.07849 14.1435 3.067 14.102 3.0663C14.0605 3.0656 14.0196 3.07571 13.9832 3.09563C13.9468 3.11556 13.9162 3.14462 13.8944 3.17996C13.8726 3.21529 13.8604 3.25568 13.859 3.29717V6.77951C13.8597 6.81226 13.8673 6.84449 13.8812 6.87416C13.8951 6.90384 13.915 6.9303 13.9396 6.95188C13.9642 6.97347 13.9931 6.98969 14.0243 6.99954C14.0556 7.00938 14.0885 7.01263 14.1211 7.00907Z" fill="#2361A9"/>
<path d="M14.0965 12.1458H17.8901C17.9221 12.1464 17.9538 12.1404 17.9834 12.1282C18.0129 12.116 18.0397 12.0979 18.062 12.075C18.0843 12.0521 18.1017 12.0249 18.1131 11.995C18.1245 11.9651 18.1296 11.9333 18.1282 11.9013C18.0492 10.6857 17.8469 9.34949 17.5324 8.25936C17.5232 8.22938 17.5082 8.20152 17.4882 8.17737C17.4682 8.15322 17.4437 8.13326 17.4159 8.11862C17.3882 8.10399 17.3579 8.09498 17.3266 8.0921C17.2954 8.08923 17.2639 8.09255 17.234 8.10187C16.2197 8.4083 15.1632 8.65868 14.0795 8.7425C14.0202 8.74586 13.9645 8.77151 13.9234 8.81429C13.8823 8.85707 13.8589 8.91381 13.8579 8.97312V11.9152C13.859 11.9774 13.8848 12.0366 13.9295 12.0799C13.9743 12.1231 14.0343 12.1468 14.0965 12.1458Z" fill="#2361A9"/>
<path d="M11.7887 3.10017C10.9655 3.55769 10.2314 4.40438 9.57478 5.57566C9.47281 5.75771 9.35109 6.00862 9.25447 6.19867C9.2401 6.22905 9.23256 6.26221 9.23238 6.29582C9.23221 6.32942 9.23939 6.36266 9.25344 6.39319C9.26748 6.42372 9.28804 6.45081 9.31368 6.47254C9.33931 6.49427 9.36939 6.51013 9.40181 6.51899C10.2105 6.76909 11.0433 6.93319 11.8864 7.00853C11.9189 7.01209 11.9518 7.00886 11.983 6.99905C12.0142 6.98923 12.043 6.97306 12.0677 6.95153C12.0923 6.93001 12.1122 6.9036 12.1261 6.87399C12.14 6.84439 12.1477 6.81221 12.1485 6.77951V3.2977C12.1468 3.25644 12.1345 3.21632 12.1127 3.18122C12.091 3.14612 12.0605 3.11724 12.0243 3.09737C11.9882 3.0775 11.9474 3.06731 11.9061 3.06781C11.8649 3.0683 11.8244 3.07945 11.7887 3.10017Z" fill="#2361A9"/>
<path d="M11.928 8.74303C10.8443 8.66028 9.78672 8.4099 8.77346 8.1024C8.74353 8.09308 8.71205 8.08976 8.68083 8.09264C8.64961 8.09551 8.61926 8.10453 8.59153 8.11916C8.56381 8.13379 8.53924 8.15376 8.51925 8.17791C8.49926 8.20206 8.48423 8.22992 8.47504 8.25989C8.16059 9.35003 7.95826 10.6863 7.87925 11.9019C7.87787 11.9338 7.88303 11.9657 7.89442 11.9955C7.90581 12.0254 7.92319 12.0526 7.94549 12.0755C7.96779 12.0984 7.99454 12.1165 8.0241 12.1287C8.05366 12.1409 8.08539 12.1469 8.11735 12.1464H11.9109C11.9418 12.1469 11.9725 12.1413 12.0012 12.1299C12.03 12.1185 12.0562 12.1015 12.0783 12.08C12.1005 12.0585 12.1182 12.0328 12.1304 12.0044C12.1426 11.9761 12.1492 11.9456 12.1496 11.9147V8.97366C12.1486 8.91434 12.1252 8.8576 12.0841 8.81482C12.043 8.77204 11.9872 8.74639 11.928 8.74303Z" fill="#2361A9"/>
<path d="M21.4557 4.54425C20.3473 3.42484 19.0286 2.53548 17.5754 1.92725C16.1222 1.31902 14.5632 1.00391 12.9878 1.00004C11.4125 0.996159 9.85188 1.30359 8.3957 1.90465C6.93953 2.50572 5.61647 3.38859 4.50253 4.50253C3.38859 5.61647 2.50572 6.93953 1.90465 8.3957C1.30359 9.85188 0.996159 11.4125 1.00004 12.9878C1.00391 14.5632 1.31902 16.1222 1.92725 17.5754C2.53548 19.0286 3.42484 20.3473 4.54425 21.4557C5.6527 22.5752 6.9714 23.4645 8.42459 24.0728C9.87779 24.681 11.4368 24.9961 13.0122 25C14.5875 25.0038 16.1481 24.6964 17.6043 24.0953C19.0605 23.4943 20.3835 22.6114 21.4975 21.4975C22.6114 20.3835 23.4943 19.0605 24.0953 17.6043C24.6964 16.1481 25.0038 14.5875 25 13.0122C24.9961 11.4368 24.681 9.87779 24.0728 8.42459C23.4645 6.9714 22.5752 5.6527 21.4557 4.54425ZM8.76118 22.3345C8.52065 21.9967 8.29825 21.6463 8.09493 21.2849C7.98816 21.0879 7.83654 20.7906 7.73564 20.584C7.71252 20.5349 7.67941 20.4913 7.63844 20.4558C7.59747 20.4204 7.54954 20.3938 7.49773 20.378C7.44592 20.3621 7.39136 20.3572 7.33755 20.3636C7.28373 20.37 7.23186 20.3876 7.18524 20.4153C6.95568 20.5439 6.65138 20.7206 6.4309 20.8653C5.96853 20.5138 5.54653 20.1123 5.1726 19.6679C5.68971 19.3029 6.23225 18.9753 6.79606 18.6877C6.89536 18.6343 6.94394 18.5735 6.91244 18.4646C6.49935 17.0348 6.24706 15.5635 6.16024 14.0779C6.15765 14.0184 6.13242 13.9623 6.08974 13.9209C6.04705 13.8795 5.99014 13.856 5.93068 13.8552H2.90158C2.87583 13.8555 2.85084 13.8465 2.83122 13.8298C2.8116 13.8131 2.79867 13.7899 2.79481 13.7645C2.76126 13.5111 2.74627 13.2556 2.74996 13C2.74631 12.7449 2.76166 12.4899 2.79587 12.2371C2.79974 12.2117 2.81267 12.1885 2.83229 12.1718C2.85191 12.1551 2.8769 12.1461 2.90265 12.1464H5.93175C6.054 12.1464 6.15436 12.0759 6.16077 11.9526C6.24644 10.4731 6.49713 9.00783 6.90817 7.58403C6.92348 7.53206 6.92017 7.47638 6.89883 7.42658C6.87749 7.37678 6.83944 7.33599 6.79125 7.31123C6.23955 7.02854 5.70736 6.70929 5.19823 6.35563C5.57017 5.91135 5.98384 5.50376 6.43357 5.13843C6.65138 5.28151 6.93539 5.44327 7.16282 5.57139C7.21294 5.59988 7.26837 5.61778 7.32568 5.62398C7.383 5.63018 7.44097 5.62454 7.49602 5.60743C7.55107 5.59031 7.60203 5.56208 7.64572 5.52447C7.68942 5.48687 7.72493 5.4407 7.75006 5.38881C7.85042 5.18221 7.9636 4.95212 8.07358 4.75459C8.27777 4.3887 8.50124 4.0339 8.74303 3.69169C10.0742 3.06458 11.5286 2.74284 13 2.74996C14.545 2.74996 15.9843 3.12366 17.2991 3.73546C17.5313 4.06143 17.7452 4.40007 17.9398 4.74979C18.078 4.99856 18.2248 5.3034 18.3487 5.56766C18.362 5.5958 18.3809 5.62093 18.4042 5.64152C18.4276 5.66211 18.4549 5.67773 18.4844 5.68743C18.514 5.69712 18.5453 5.70068 18.5763 5.6979C18.6073 5.69511 18.6374 5.68603 18.6647 5.67122C18.952 5.51587 19.2632 5.33703 19.5371 5.15712C19.9881 5.52603 20.4028 5.93719 20.7756 6.38499C20.2804 6.72841 19.762 7.03718 19.2242 7.30909C19.1759 7.33388 19.1379 7.37479 19.1166 7.42472C19.0954 7.47465 19.0923 7.53045 19.1078 7.58243C19.5256 8.99656 19.7738 10.4553 19.8472 11.928C19.8501 11.9871 19.8755 12.0428 19.9182 12.0837C19.9609 12.1246 20.0177 12.1476 20.0768 12.148L23.0995 12.1442C23.1252 12.1439 23.1502 12.153 23.1698 12.1696C23.1895 12.1863 23.2024 12.2095 23.2063 12.235C23.2685 12.7424 23.2685 13.2555 23.2063 13.7629C23.2026 13.7885 23.1898 13.812 23.1702 13.8289C23.1505 13.8458 23.1254 13.855 23.0995 13.8547H20.0741C20.0146 13.8553 19.9576 13.8788 19.9149 13.9202C19.8722 13.9616 19.847 14.0179 19.8446 14.0773C19.7614 15.5473 19.513 17.0032 19.1041 18.4176C19.0886 18.4702 19.0918 18.5265 19.1131 18.577C19.1345 18.6275 19.1726 18.669 19.221 18.6946C19.488 18.8329 19.7853 18.9872 20.0416 19.1441C20.2978 19.3011 20.5514 19.4687 20.7959 19.6428C20.426 20.0885 20.0149 20.4983 19.568 20.8669C19.4378 20.781 19.283 20.6833 19.1495 20.6032C19.0577 20.5498 18.8884 20.4553 18.7945 20.4024C18.5905 20.2882 18.3738 20.3736 18.2718 20.584C18.1699 20.7943 18.014 21.0959 17.9051 21.2913C17.7044 21.6506 17.4843 21.9986 17.2458 22.3339C15.9314 22.9495 14.545 23.25 13 23.25C11.455 23.25 10.0761 22.9495 8.76118 22.3345Z" fill="#2361A9"/>
</svg>
