<svg width="42" height="34" viewBox="0 0 42 34" fill="none" xmlns="http://www.w3.org/2000/svg">
<path d="M0 32.4545C0 32.8644 0.158035 33.2575 0.43934 33.5473C0.720644 33.8372 1.10218 34 1.5 34H40.5C40.8978 34 41.2794 33.8372 41.5607 33.5473C41.842 33.2575 42 32.8644 42 32.4545V13.7159H0V32.4545ZM6.1875 19.125C6.1875 18.9201 6.26652 18.7235 6.40717 18.5786C6.54782 18.4337 6.73859 18.3523 6.9375 18.3523H15.5625C15.7614 18.3523 15.9522 18.4337 16.0928 18.5786C16.2335 18.7235 16.3125 18.9201 16.3125 19.125V25.3068C16.3125 25.5118 16.2335 25.7083 16.0928 25.8532C15.9522 25.9981 15.7614 26.0795 15.5625 26.0795H6.9375C6.73859 26.0795 6.54782 25.9981 6.40717 25.8532C6.26652 25.7083 6.1875 25.5118 6.1875 25.3068V19.125Z" fill="#E40137"/>
<path d="M40.5 0H1.5C1.10218 0 0.720644 0.162825 0.43934 0.452653C0.158035 0.742482 0 1.13557 0 1.54545V7.92045H42V1.54545C42 1.13557 41.842 0.742482 41.5607 0.452653C41.2794 0.162825 40.8978 0 40.5 0Z" fill="#E40137"/>
</svg>
