<svg width="18" height="10" viewBox="0 0 18 10" fill="none" xmlns="http://www.w3.org/2000/svg">
<path d="M8.93457 0.00146182C8.50594 0.0150632 8.09735 0.17945 7.78635 0.463671L0.537996 7.10356C0.0866621 7.52027 -0.0988237 8.13655 0.0510234 8.72025C0.201139 9.30394 0.663704 9.76663 1.26492 9.93358C1.86613 10.1008 2.51444 9.94718 2.96579 9.53047L9 4.0144L15.0342 9.53047C15.4855 9.94718 16.1339 10.1008 16.7351 9.93358C17.3363 9.76662 17.7988 9.30395 17.949 8.72025C18.0988 8.13657 17.9133 7.52031 17.462 7.10356L10.2136 0.46367C9.86996 0.149199 9.40861 -0.0175326 8.93457 0.00146182Z" fill="#2361A9"/>
</svg>
