<svg width="40" height="44" viewBox="0 0 40 44" fill="none" xmlns="http://www.w3.org/2000/svg">
<path d="M37.7789 10.2426C37.8369 10.208 37.8851 10.1584 37.9186 10.0989C37.952 10.0394 37.9696 9.97191 37.9696 9.90326C37.9696 9.83461 37.952 9.76716 37.9186 9.70762C37.8851 9.64809 37.8369 9.59856 37.7789 9.56396L23.0923 0.849283C22.1526 0.292973 21.0857 0 19.9995 0C18.9134 0 17.8465 0.292973 16.9067 0.849283L2.22308 9.56396C2.16502 9.59856 2.11686 9.64809 2.08338 9.70762C2.0499 9.76716 2.03228 9.83461 2.03228 9.90326C2.03228 9.97191 2.0499 10.0394 2.08338 10.0989C2.11686 10.1584 2.16502 10.208 2.22308 10.2426L19.8077 20.8074C19.8668 20.843 19.9342 20.8618 20.0029 20.8618C20.0715 20.8618 20.1389 20.843 20.1981 20.8074L37.7789 10.2426Z" fill="#E40137"/>
<path d="M0.576931 12.9147C0.518279 12.8801 0.451725 12.862 0.383999 12.8621C0.316272 12.8622 0.249775 12.8806 0.191232 12.9153C0.132689 12.9501 0.0841761 13.0001 0.0505983 13.0601C0.0170205 13.1202 -0.00043123 13.1883 8.09413e-06 13.2574V30.3342C0.00145973 31.1572 0.213824 31.9654 0.615982 32.6785C1.01814 33.3916 1.59608 33.9847 2.29232 34.3989L17.8846 43.9474C17.9431 43.9818 18.0093 44 18.0768 44C18.1443 44 18.2106 43.9819 18.2691 43.9475C18.3275 43.913 18.3761 43.8635 18.4099 43.8039C18.4437 43.7442 18.4615 43.6765 18.4615 43.6076V23.7948C18.4615 23.7259 18.4437 23.6583 18.4099 23.5986C18.3762 23.539 18.3276 23.4895 18.2692 23.455L0.576931 12.9147Z" fill="#E40137"/>
<path d="M21.5385 23.8635V43.6027C21.5385 43.6716 21.5564 43.7393 21.5901 43.7989C21.6239 43.8586 21.6725 43.9081 21.7309 43.9426C21.7894 43.977 21.8557 43.9951 21.9232 43.9951C21.9907 43.9951 22.0569 43.9769 22.1154 43.9425L37.7067 34.394C38.4025 33.9804 38.9801 33.388 39.3824 32.6759C39.7847 31.9637 39.9976 31.1564 40 30.3342V13.2574C39.9998 13.1886 39.9818 13.121 39.948 13.0615C39.9141 13.002 39.8655 12.9526 39.8071 12.9183C39.7487 12.884 39.6824 12.8659 39.615 12.866C39.5476 12.8661 39.4814 12.8842 39.4231 12.9186L21.7308 23.5247C21.6725 23.5591 21.6241 23.6085 21.5903 23.6679C21.5566 23.7274 21.5387 23.7948 21.5385 23.8635Z" fill="#E40137"/>
</svg>
