<svg width="50" height="50" viewBox="0 0 50 50" fill="none" xmlns="http://www.w3.org/2000/svg">
<circle cx="25" cy="25" r="25" fill="#ECEFF3"/>
<path d="M25.0006 10C26.6573 10 28 11.199 28 12.6784L27.2499 29.9555C27.2499 31.0649 26.2424 31.9645 25 31.9645C23.7576 31.9645 22.7501 31.0649 22.7501 29.9555L22 12.6784C22 11.199 23.3427 10 24.9994 10H25.0006ZM25.0006 34.6433C26.6573 34.6433 28 35.8423 28 37.3216C28 38.801 26.6573 40 25.0006 40C23.344 40 22.0012 38.801 22.0012 37.3216C22.0012 35.8423 23.344 34.6433 25.0006 34.6433Z" fill="#0060AE"/>
</svg>
