<svg width="34" height="34" viewBox="0 0 34 34" fill="none" xmlns="http://www.w3.org/2000/svg">
<path d="M17 0.75C8.03984 0.75 0.75 8.03984 0.75 17C0.75 25.9602 8.03984 33.25 17 33.25C25.9602 33.25 33.25 25.9602 33.25 17C33.25 8.03984 25.9602 0.75 17 0.75ZM17 25.743C16.691 25.743 16.3889 25.6513 16.1319 25.4796C15.875 25.308 15.6747 25.0639 15.5564 24.7784C15.4382 24.4929 15.4072 24.1787 15.4675 23.8756C15.5278 23.5725 15.6766 23.2941 15.8951 23.0756C16.1137 22.8571 16.3921 22.7083 16.6952 22.648C16.9983 22.5877 17.3124 22.6186 17.5979 22.7369C17.8835 22.8552 18.1275 23.0554 18.2992 23.3124C18.4709 23.5693 18.5625 23.8714 18.5625 24.1805C18.5625 24.5949 18.3979 24.9923 18.1049 25.2853C17.8118 25.5783 17.4144 25.743 17 25.743ZM18.6969 10.0281L18.2484 19.5594C18.2484 19.8909 18.1167 20.2088 17.8823 20.4433C17.6479 20.6777 17.33 20.8094 16.9984 20.8094C16.6669 20.8094 16.349 20.6777 16.1146 20.4433C15.8801 20.2088 15.7484 19.8909 15.7484 19.5594L15.3 10.0328V10.0289C15.2902 9.79994 15.3268 9.57136 15.4076 9.35692C15.4885 9.14248 15.6119 8.94662 15.7704 8.78113C15.929 8.61564 16.1193 8.48395 16.3301 8.39398C16.5409 8.30401 16.7677 8.25763 16.9969 8.25763C17.226 8.25763 17.4529 8.30401 17.6636 8.39398C17.8744 8.48395 18.0648 8.61564 18.2233 8.78113C18.3819 8.94662 18.5053 9.14248 18.5861 9.35692C18.667 9.57136 18.7036 9.79994 18.6937 10.0289L18.6969 10.0281Z" fill="#2361A9"/>
</svg>
