<svg width="26" height="22" viewBox="0 0 26 22" fill="none" xmlns="http://www.w3.org/2000/svg">
<path fill-rule="evenodd" clip-rule="evenodd" d="M4.09375 2.5625C3.72079 2.5625 3.3631 2.71066 3.09938 2.97438C2.83566 3.2381 2.6875 3.59579 2.6875 3.96875V18.0312C2.6875 18.4042 2.83566 18.7619 3.09938 19.0256C3.3631 19.2893 3.72079 19.4375 4.09375 19.4375H13.4688C13.8417 19.4375 14.1994 19.2893 14.4631 19.0256C14.7268 18.7619 14.875 18.4042 14.875 18.0312V15.6875C14.875 15.1697 15.2947 14.75 15.8125 14.75C16.3303 14.75 16.75 15.1697 16.75 15.6875V18.0312C16.75 18.9015 16.4043 19.7361 15.7889 20.3514C15.1736 20.9668 14.339 21.3125 13.4688 21.3125H4.09375C3.22351 21.3125 2.38891 20.9668 1.77356 20.3514C1.1582 19.7361 0.8125 18.9015 0.8125 18.0312V3.96875C0.8125 3.09851 1.1582 2.26391 1.77356 1.64856C2.38891 1.0332 3.22351 0.6875 4.09375 0.6875H13C13.8803 0.6875 14.783 1.0354 15.4698 1.57354C16.1531 2.10887 16.75 2.94051 16.75 3.96875V6.3125C16.75 6.83027 16.3303 7.25 15.8125 7.25C15.2947 7.25 14.875 6.83027 14.875 6.3125V3.96875C14.875 3.70266 14.7129 3.36242 14.3134 3.04946C13.9176 2.7393 13.414 2.5625 13 2.5625H4.09375ZM18.8996 5.64959C19.2657 5.28347 19.8593 5.28347 20.2254 5.64959L24.9129 10.3371C25.279 10.7032 25.279 11.2968 24.9129 11.6629L20.2254 16.3504C19.8593 16.7165 19.2657 16.7165 18.8996 16.3504C18.5335 15.9843 18.5335 15.3907 18.8996 15.0246L21.9867 11.9375H8.3125C7.79473 11.9375 7.375 11.5178 7.375 11C7.375 10.4822 7.79473 10.0625 8.3125 10.0625H21.9867L18.8996 6.97541C18.5335 6.6093 18.5335 6.0157 18.8996 5.64959Z" fill="#2361A9"/>
</svg>
