<svg width="22" height="22" viewBox="0 0 22 22" fill="none" xmlns="http://www.w3.org/2000/svg">
<path d="M19.8 1.2825L18.3333 0.531738L16.8667 1.2825L15.4 0.531738L13.9333 1.2825L12.4667 0.531738L11 1.2825L9.53333 0.531738L8.06667 1.2825L5.86667 0.531738V12.5462H16.1333V18.9253C16.1333 20.3766 17.649 21.5529 19.0667 21.5529H19.6167C21.0343 21.5529 22 20.3766 22 18.9253V0.531738L19.8 1.2825ZM11.7563 10.2916L11.7333 8.79007H19.0438L19.0667 10.2916H11.7563ZM8.82292 6.5378L8.8 5.03628H19.0438L19.0667 6.5378H8.82292Z" fill="#2361A9"/>
<path d="M14.6667 18.9253V14.0454H0V15.5469C0 17.9188 0.264917 18.9075 0.66275 19.6587C1.33788 20.9336 2.56025 21.5529 4.4 21.5529H16.1333C16.1333 21.5529 14.6667 20.6145 14.6667 18.9253Z" fill="#2361A9"/>
</svg>
