<svg width="22" height="18" viewBox="0 0 22 18" fill="none" xmlns="http://www.w3.org/2000/svg">
<path d="M0 17.1818C0 17.3988 0.0827803 17.6069 0.23013 17.7604C0.37748 17.9138 0.57733 18 0.785714 18H21.2143C21.4227 18 21.6225 17.9138 21.7699 17.7604C21.9172 17.6069 22 17.3988 22 17.1818V7.26136H0V17.1818ZM3.24107 10.125C3.24107 10.0165 3.28246 9.91245 3.35614 9.83573C3.42981 9.75901 3.52974 9.71591 3.63393 9.71591H8.15179C8.25598 9.71591 8.3559 9.75901 8.42958 9.83573C8.50325 9.91245 8.54464 10.0165 8.54464 10.125V13.3977C8.54464 13.5062 8.50325 13.6103 8.42958 13.687C8.3559 13.7637 8.25598 13.8068 8.15179 13.8068H3.63393C3.52974 13.8068 3.42981 13.7637 3.35614 13.687C3.28246 13.6103 3.24107 13.5062 3.24107 13.3977V10.125Z" fill="#2361A9"/>
<path d="M21.2143 0H0.785714C0.57733 0 0.37748 0.0862012 0.23013 0.23964C0.0827803 0.393079 0 0.601187 0 0.818182V4.19318H22V0.818182C22 0.601187 21.9172 0.393079 21.7699 0.23964C21.6225 0.0862012 21.4227 0 21.2143 0Z" fill="#2361A9"/>
</svg>
