<svg width="22" height="22" viewBox="0 0 22 22" fill="none" xmlns="http://www.w3.org/2000/svg">
<path d="M11 0C4.93466 0 0 4.93466 0 11C0 17.0653 4.93466 22 11 22C17.0653 22 22 17.0653 22 11C22 4.93466 17.0653 0 11 0ZM11.1058 5.07692C11.8589 5.07692 12.595 5.30024 13.2212 5.71864C13.8474 6.13703 14.3354 6.73171 14.6236 7.42747C14.9118 8.12324 14.9872 8.88884 14.8403 9.62746C14.6934 10.3661 14.3307 11.0445 13.7982 11.5771C13.2657 12.1096 12.5872 12.4722 11.8486 12.6191C11.11 12.7661 10.3444 12.6907 9.64863 12.4025C8.95286 12.1143 8.35818 11.6262 7.93979 11.0001C7.52139 10.3739 7.29808 9.63771 7.29808 8.88462C7.29808 7.87475 7.69924 6.90625 8.41332 6.19217C9.12741 5.47809 10.0959 5.07692 11.1058 5.07692ZM11 20.3077C9.7162 20.3082 8.44625 20.0425 7.27037 19.5273C6.09449 19.0121 5.03825 18.2586 4.16837 17.3144C4.63587 14.8934 8.8349 14.3846 11 14.3846C13.1651 14.3846 17.3641 14.8934 17.8316 17.3139C16.9619 18.2582 15.9056 19.0119 14.7298 19.5272C13.5539 20.0425 12.2839 20.3083 11 20.3077Z" fill="#2361A9"/>
</svg>
