<svg width="20" height="22" viewBox="0 0 20 22" fill="none" xmlns="http://www.w3.org/2000/svg">
<path d="M18.8894 5.12128C18.9185 5.10398 18.9425 5.07922 18.9593 5.04945C18.976 5.01968 18.9848 4.98596 18.9848 4.95163C18.9848 4.9173 18.976 4.88358 18.9593 4.85381C18.9425 4.82405 18.9185 4.79928 18.8894 4.78198L11.5462 0.424641C11.0763 0.146486 10.5428 0 9.99976 0C9.45668 0 8.92323 0.146486 8.45337 0.424641L1.11154 4.78198C1.08251 4.79928 1.05843 4.82405 1.04169 4.85381C1.02495 4.88358 1.01614 4.9173 1.01614 4.95163C1.01614 4.98596 1.02495 5.01968 1.04169 5.04945C1.05843 5.07922 1.08251 5.10398 1.11154 5.12128L9.90385 10.4037C9.93342 10.4215 9.96712 10.4309 10.0014 10.4309C10.0358 10.4309 10.0695 10.4215 10.099 10.4037L18.8894 5.12128Z" fill="#2361A9"/>
<path d="M0.288466 6.45735C0.25914 6.44006 0.225863 6.43098 0.191999 6.43104C0.158136 6.43109 0.124888 6.44028 0.0956161 6.45767C0.0663446 6.47506 0.0420881 6.50003 0.0252992 6.53007C0.00851025 6.5601 -0.000215615 6.59413 4.04707e-06 6.62872V15.1671C0.000729866 15.5786 0.106912 15.9827 0.307991 16.3392C0.50907 16.6958 0.798038 16.9924 1.14616 17.1995L8.94231 21.9737C8.97153 21.9909 9.00467 22 9.03841 22C9.07215 22 9.1053 21.991 9.13453 21.9737C9.16376 21.9565 9.18804 21.9318 9.20493 21.9019C9.22183 21.8721 9.23074 21.8383 9.23077 21.8038V11.8974C9.23074 11.863 9.22184 11.8291 9.20496 11.7993C9.18808 11.7695 9.16382 11.7447 9.13462 11.7275L0.288466 6.45735Z" fill="#2361A9"/>
<path d="M10.7692 11.9318V21.8013C10.7693 21.8358 10.7782 21.8696 10.7951 21.8995C10.812 21.9293 10.8362 21.9541 10.8655 21.9713C10.8947 21.9885 10.9279 21.9976 10.9616 21.9975C10.9953 21.9975 11.0285 21.9885 11.0577 21.9712L18.8534 17.197C19.2012 16.9902 19.4901 16.694 19.6912 16.3379C19.8924 15.9818 19.9988 15.5782 20 15.1671V6.62872C19.9999 6.5943 19.9909 6.56052 19.974 6.53076C19.9571 6.501 19.9328 6.4763 19.9036 6.45914C19.8743 6.44199 19.8412 6.43297 19.8075 6.433C19.7738 6.43303 19.7407 6.44211 19.7115 6.45932L10.8654 11.7624C10.8363 11.7795 10.812 11.8042 10.7952 11.834C10.7783 11.8637 10.7694 11.8974 10.7692 11.9318Z" fill="#2361A9"/>
</svg>
