<svg width="60" height="60" viewBox="0 0 60 60" fill="none" xmlns="http://www.w3.org/2000/svg">
<circle cx="30" cy="30" r="29" stroke="#2361A9" stroke-width="2"/>
<path d="M34.1875 18H24.8125C20.4984 18 17 21.4984 17 25.8125V35.1875C17 39.5016 20.4984 43 24.8125 43H34.1875C38.5016 43 42 39.5016 42 35.1875V25.8125C42 21.4984 38.5016 18 34.1875 18ZM39.6562 35.1875C39.6562 38.2031 37.2031 40.6562 34.1875 40.6562H24.8125C21.7969 40.6562 19.3438 38.2031 19.3438 35.1875V25.8125C19.3438 22.7969 21.7969 20.3438 24.8125 20.3438H34.1875C37.2031 20.3438 39.6562 22.7969 39.6562 25.8125V35.1875Z" fill="#2361A9"/>
<path d="M29.5 24.2493C26.0484 24.2493 23.25 27.0477 23.25 30.4993C23.25 33.9508 26.0484 36.7493 29.5 36.7493C32.9516 36.7493 35.75 33.9508 35.75 30.4993C35.75 27.0477 32.9516 24.2493 29.5 24.2493ZM29.5 34.4055C27.3469 34.4055 25.5938 32.6524 25.5938 30.4993C25.5938 28.3446 27.3469 26.593 29.5 26.593C31.6531 26.593 33.4062 28.3446 33.4062 30.4993C33.4062 32.6524 31.6531 34.4055 29.5 34.4055Z" fill="#2361A9"/>
<path d="M36.2206 24.6126C36.6806 24.6126 37.0534 24.2398 37.0534 23.7798C37.0534 23.3199 36.6806 22.947 36.2206 22.947C35.7607 22.947 35.3878 23.3199 35.3878 23.7798C35.3878 24.2398 35.7607 24.6126 36.2206 24.6126Z" fill="#2361A9"/>
</svg>
