<svg width="18" height="10" viewBox="0 0 18 10" fill="none" xmlns="http://www.w3.org/2000/svg">
<path d="M9.06543 9.99854C9.49406 9.98494 9.90265 9.82055 10.2136 9.53633L17.462 2.89644C17.9133 2.47973 18.0988 1.86345 17.949 1.27975C17.7989 0.696065 17.3363 0.233371 16.7351 0.0664192C16.1339 -0.100785 15.4856 0.052818 15.0342 0.46953L9 5.9856L2.9658 0.46953C2.51446 0.0528156 1.86613 -0.100785 1.26493 0.0664192C0.663726 0.233383 0.201193 0.696047 0.0510341 1.27975C-0.0988377 1.86343 0.0866717 2.47969 0.538005 2.89644L7.78636 9.53633C8.13004 9.8508 8.59139 10.0175 9.06543 9.99854Z" fill="#2361A9"/>
</svg>
