<svg width="24" height="24" viewBox="0 0 24 24" fill="none" xmlns="http://www.w3.org/2000/svg">
<path d="M3.6875 6.75C3.0818 6.75 2.48969 6.57039 1.98607 6.23388C1.48244 5.89737 1.08991 5.41907 0.85812 4.85947C0.626327 4.29987 0.565679 3.6841 0.683846 3.09004C0.802014 2.49597 1.09369 1.95029 1.52199 1.52199C1.95029 1.09369 2.49597 0.802014 3.09004 0.683846C3.6841 0.565679 4.29987 0.626327 4.85947 0.85812C5.41907 1.08991 5.89737 1.48244 6.23388 1.98607C6.57039 2.48969 6.75 3.0818 6.75 3.6875C6.74913 4.49946 6.4262 5.27792 5.85206 5.85206C5.27792 6.4262 4.49946 6.74913 3.6875 6.75Z" fill="#2361A9"/>
<path d="M12 6.75C11.3943 6.75 10.8022 6.57039 10.2986 6.23388C9.79494 5.89737 9.40241 5.41907 9.17062 4.85947C8.93883 4.29987 8.87818 3.6841 8.99635 3.09004C9.11451 2.49597 9.40619 1.95029 9.83449 1.52199C10.2628 1.09369 10.8085 0.802014 11.4025 0.683846C11.9966 0.565679 12.6124 0.626327 13.172 0.85812C13.7316 1.08991 14.2099 1.48244 14.5464 1.98607C14.8829 2.48969 15.0625 3.0818 15.0625 3.6875C15.0616 4.49946 14.7387 5.27792 14.1646 5.85206C13.5904 6.4262 12.812 6.74913 12 6.75Z" fill="#2361A9"/>
<path d="M20.3125 6.75C19.7068 6.75 19.1147 6.57039 18.6111 6.23388C18.1074 5.89737 17.7149 5.41907 17.4831 4.85947C17.2513 4.29987 17.1907 3.6841 17.3088 3.09004C17.427 2.49597 17.7187 1.95029 18.147 1.52199C18.5753 1.09369 19.121 0.802014 19.715 0.683846C20.3091 0.565679 20.9249 0.626327 21.4845 0.85812C22.0441 1.08991 22.5224 1.48244 22.8589 1.98607C23.1954 2.48969 23.375 3.0818 23.375 3.6875C23.3741 4.49946 23.0512 5.27792 22.4771 5.85206C21.9029 6.4262 21.1245 6.74913 20.3125 6.75Z" fill="#2361A9"/>
<path d="M3.6875 15.0625C3.0818 15.0625 2.48969 14.8829 1.98607 14.5464C1.48244 14.2099 1.08991 13.7316 0.85812 13.172C0.626327 12.6124 0.565679 11.9966 0.683846 11.4025C0.802014 10.8085 1.09369 10.2628 1.52199 9.83449C1.95029 9.40619 2.49597 9.11451 3.09004 8.99635C3.6841 8.87818 4.29987 8.93883 4.85947 9.17062C5.41907 9.40241 5.89737 9.79494 6.23388 10.2986C6.57039 10.8022 6.75 11.3943 6.75 12C6.74913 12.812 6.4262 13.5904 5.85206 14.1646C5.27792 14.7387 4.49946 15.0616 3.6875 15.0625Z" fill="#2361A9"/>
<path d="M12 15.0625C11.3943 15.0625 10.8022 14.8829 10.2986 14.5464C9.79494 14.2099 9.40241 13.7316 9.17062 13.172C8.93883 12.6124 8.87818 11.9966 8.99635 11.4025C9.11451 10.8085 9.40619 10.2628 9.83449 9.83449C10.2628 9.40619 10.8085 9.11451 11.4025 8.99635C11.9966 8.87818 12.6124 8.93883 13.172 9.17062C13.7316 9.40241 14.2099 9.79494 14.5464 10.2986C14.8829 10.8022 15.0625 11.3943 15.0625 12C15.0616 12.812 14.7387 13.5904 14.1646 14.1646C13.5904 14.7387 12.812 15.0616 12 15.0625Z" fill="#2361A9"/>
<path d="M20.3125 15.0625C19.7068 15.0625 19.1147 14.8829 18.6111 14.5464C18.1074 14.2099 17.7149 13.7316 17.4831 13.172C17.2513 12.6124 17.1907 11.9966 17.3088 11.4025C17.427 10.8085 17.7187 10.2628 18.147 9.83449C18.5753 9.40619 19.121 9.11451 19.715 8.99635C20.3091 8.87818 20.9249 8.93883 21.4845 9.17062C22.0441 9.40241 22.5224 9.79494 22.8589 10.2986C23.1954 10.8022 23.375 11.3943 23.375 12C23.3741 12.812 23.0512 13.5904 22.4771 14.1646C21.9029 14.7387 21.1245 15.0616 20.3125 15.0625Z" fill="#2361A9"/>
<path d="M3.6875 23.375C3.0818 23.375 2.48969 23.1954 1.98607 22.8589C1.48244 22.5224 1.08991 22.0441 0.85812 21.4845C0.626327 20.9249 0.565679 20.3091 0.683846 19.715C0.802014 19.121 1.09369 18.5753 1.52199 18.147C1.95029 17.7187 2.49597 17.427 3.09004 17.3088C3.6841 17.1907 4.29987 17.2513 4.85947 17.4831C5.41907 17.7149 5.89737 18.1074 6.23388 18.6111C6.57039 19.1147 6.75 19.7068 6.75 20.3125C6.74913 21.1245 6.4262 21.9029 5.85206 22.4771C5.27792 23.0512 4.49946 23.3741 3.6875 23.375Z" fill="#2361A9"/>
<path d="M12 23.375C11.3943 23.375 10.8022 23.1954 10.2986 22.8589C9.79494 22.5224 9.40241 22.0441 9.17062 21.4845C8.93883 20.9249 8.87818 20.3091 8.99635 19.715C9.11451 19.121 9.40619 18.5753 9.83449 18.147C10.2628 17.7187 10.8085 17.427 11.4025 17.3088C11.9966 17.1907 12.6124 17.2513 13.172 17.4831C13.7316 17.7149 14.2099 18.1074 14.5464 18.6111C14.8829 19.1147 15.0625 19.7068 15.0625 20.3125C15.0616 21.1245 14.7387 21.9029 14.1646 22.4771C13.5904 23.0512 12.812 23.3741 12 23.375Z" fill="#2361A9"/>
<path d="M20.3125 23.375C19.7068 23.375 19.1147 23.1954 18.6111 22.8589C18.1074 22.5224 17.7149 22.0441 17.4831 21.4845C17.2513 20.9249 17.1907 20.3091 17.3088 19.715C17.427 19.121 17.7187 18.5753 18.147 18.147C18.5753 17.7187 19.121 17.427 19.715 17.3088C20.3091 17.1907 20.9249 17.2513 21.4845 17.4831C22.0441 17.7149 22.5224 18.1074 22.8589 18.6111C23.1954 19.1147 23.375 19.7068 23.375 20.3125C23.3741 21.1245 23.0512 21.9029 22.4771 22.4771C21.9029 23.0512 21.1245 23.3741 20.3125 23.375Z" fill="#2361A9"/>
</svg>
