<svg width="30" height="44" viewBox="0 0 30 44" fill="none" xmlns="http://www.w3.org/2000/svg">
<path d="M30 5.21427C29.9988 4.00052 29.5243 2.83684 28.6806 1.97859C27.837 1.12034 26.6931 0.637615 25.5 0.636353H4.5C3.30691 0.637615 2.16303 1.12034 1.31939 1.97859C0.475745 2.83684 0.00124087 4.00052 0 5.21427V38.7857C0.00124087 39.9995 0.475745 41.1631 1.31939 42.0214C2.16303 42.8796 3.30691 43.3624 4.5 43.3636H25.5C26.6931 43.3624 27.837 42.8796 28.6806 42.0214C29.5243 41.1631 29.9988 39.9995 30 38.7857V5.21427ZM6.75 38.7857C6.30499 38.7857 5.86998 38.6515 5.49997 38.3999C5.12996 38.1484 4.84157 37.7909 4.67127 37.3727C4.50097 36.9544 4.45642 36.4942 4.54323 36.0502C4.63005 35.6062 4.84434 35.1983 5.15901 34.8782C5.47368 34.5581 5.87459 34.3401 6.31105 34.2518C6.7475 34.1634 7.1999 34.2088 7.61104 34.382C8.02217 34.5553 8.37357 34.8486 8.62081 35.2251C8.86804 35.6015 9 36.044 9 36.4967C9 37.1038 8.76295 37.686 8.34099 38.1153C7.91903 38.5445 7.34674 38.7857 6.75 38.7857ZM6.75 31.1558C6.30499 31.1558 5.86998 31.0216 5.49997 30.7701C5.12996 30.5186 4.84157 30.1611 4.67127 29.7428C4.50097 29.3246 4.45642 28.8643 4.54323 28.4203C4.63005 27.9763 4.84434 27.5685 5.15901 27.2483C5.47368 26.9282 5.87459 26.7102 6.31105 26.6219C6.7475 26.5336 7.1999 26.5789 7.61104 26.7521C8.02217 26.9254 8.37357 27.2188 8.62081 27.5952C8.86804 27.9716 9 28.4142 9 28.8669C9 29.4739 8.76295 30.0561 8.34099 30.4854C7.91903 30.9147 7.34674 31.1558 6.75 31.1558ZM6.75 23.526C6.30499 23.526 5.86998 23.3917 5.49997 23.1402C5.12996 22.8887 4.84157 22.5312 4.67127 22.1129C4.50097 21.6947 4.45642 21.2345 4.54323 20.7904C4.63005 20.3464 4.84434 19.9386 5.15901 19.6185C5.47368 19.2983 5.87459 19.0803 6.31105 18.992C6.7475 18.9037 7.1999 18.949 7.61104 19.1223C8.02217 19.2955 8.37357 19.5889 8.62081 19.9653C8.86804 20.3417 9 20.7843 9 21.237C9 21.8441 8.76295 22.4263 8.34099 22.8555C7.91903 23.2848 7.34674 23.526 6.75 23.526ZM15 38.7857C14.555 38.7857 14.12 38.6515 13.75 38.3999C13.38 38.1484 13.0916 37.7909 12.9213 37.3727C12.751 36.9544 12.7064 36.4942 12.7932 36.0502C12.88 35.6062 13.0943 35.1983 13.409 34.8782C13.7237 34.5581 14.1246 34.3401 14.561 34.2518C14.9975 34.1634 15.4499 34.2088 15.861 34.382C16.2722 34.5553 16.6236 34.8486 16.8708 35.2251C17.118 35.6015 17.25 36.044 17.25 36.4967C17.25 37.1038 17.0129 37.686 16.591 38.1153C16.169 38.5445 15.5967 38.7857 15 38.7857ZM15 31.1558C14.555 31.1558 14.12 31.0216 13.75 30.7701C13.38 30.5186 13.0916 30.1611 12.9213 29.7428C12.751 29.3246 12.7064 28.8643 12.7932 28.4203C12.88 27.9763 13.0943 27.5685 13.409 27.2483C13.7237 26.9282 14.1246 26.7102 14.561 26.6219C14.9975 26.5336 15.4499 26.5789 15.861 26.7521C16.2722 26.9254 16.6236 27.2188 16.8708 27.5952C17.118 27.9716 17.25 28.4142 17.25 28.8669C17.25 29.4739 17.0129 30.0561 16.591 30.4854C16.169 30.9147 15.5967 31.1558 15 31.1558ZM15 23.526C14.555 23.526 14.12 23.3917 13.75 23.1402C13.38 22.8887 13.0916 22.5312 12.9213 22.1129C12.751 21.6947 12.7064 21.2345 12.7932 20.7904C12.88 20.3464 13.0943 19.9386 13.409 19.6185C13.7237 19.2983 14.1246 19.0803 14.561 18.992C14.9975 18.9037 15.4499 18.949 15.861 19.1223C16.2722 19.2955 16.6236 19.5889 16.8708 19.9653C17.118 20.3417 17.25 20.7843 17.25 21.237C17.25 21.8441 17.0129 22.4263 16.591 22.8555C16.169 23.2848 15.5967 23.526 15 23.526ZM25.5 36.4967C25.5 37.1038 25.2629 37.686 24.841 38.1153C24.419 38.5445 23.8467 38.7857 23.25 38.7857C22.6533 38.7857 22.081 38.5445 21.659 38.1153C21.2371 37.686 21 37.1038 21 36.4967V28.8669C21 28.2598 21.2371 27.6776 21.659 27.2483C22.081 26.8191 22.6533 26.5779 23.25 26.5779C23.8467 26.5779 24.419 26.8191 24.841 27.2483C25.2629 27.6776 25.5 28.2598 25.5 28.8669V36.4967ZM23.25 23.526C22.805 23.526 22.37 23.3917 22 23.1402C21.63 22.8887 21.3416 22.5312 21.1713 22.1129C21.001 21.6947 20.9564 21.2345 21.0432 20.7904C21.13 20.3464 21.3443 19.9386 21.659 19.6185C21.9737 19.2983 22.3746 19.0803 22.811 18.992C23.2475 18.9037 23.6999 18.949 24.111 19.1223C24.5222 19.2955 24.8736 19.5889 25.1208 19.9653C25.368 20.3417 25.5 20.7843 25.5 21.237C25.5 21.8441 25.2629 22.4263 24.841 22.8555C24.419 23.2848 23.8467 23.526 23.25 23.526ZM25.0603 13.9228C24.7792 14.209 24.3978 14.3699 24 14.3701H6C5.60218 14.3701 5.22064 14.2093 4.93934 13.9232C4.65804 13.637 4.5 13.2489 4.5 12.8441V6.74025C4.5 6.33554 4.65804 5.9474 4.93934 5.66122C5.22064 5.37505 5.60218 5.21427 6 5.21427H24C24.3978 5.21427 24.7794 5.37505 25.0607 5.66122C25.342 5.9474 25.5 6.33554 25.5 6.74025V12.8441C25.4998 13.2488 25.3417 13.6368 25.0603 13.9228Z" fill="#E40137"/>
</svg>
